{"asset":{"version":"2.0","generator":"THREE.GLTFExporter"},"scenes":[{"name":"AuxScene","nodes":[23]}],"scene":0,"nodes":[{"name":"armLeft_1","mesh":0},{"name":"armLeft_2","mesh":1},{"name":"armLeft_3","mesh":2},{"matrix":[1,0,0,0,0,1,0,0,0,0,1,0,-0.1679999977350235,0.7045199871063232,0,1],"name":"armLeft","extras":{"name":"armLeft"},"children":[0,1,2]},{"name":"armRight_1","mesh":3},{"name":"armRight_2","mesh":4},{"name":"armRight_3","mesh":5},{"matrix":[1,0,0,0,0,1,0,0,0,0,1,0,0.1679999977350235,0.7045199871063232,0,1],"name":"armRight","extras":{"name":"armRight"},"children":[4,5,6]},{"name":"Group_122_1","mesh":6},{"name":"Group_122_2","mesh":7},{"matrix":[1,0,0,0,0,0.9978014680101869,0.06627390403925659,0,0,-0.06627390403925659,0.9978014680101869,0,0.19300931692123413,0.2144319713115692,-0.2536008656024933,1],"name":"Group_122001","extras":{"name":"Group 122.001"},"mesh":8},{"matrix":[1,0,0,0,0,1,0,0,0,0,1,0,0,0.7795199751853943,0,1],"name":"Group_122","extras":{"name":"Group 122"},"children":[8,9,10]},{"name":"body_1","mesh":9},{"name":"body_2","mesh":10},{"name":"body_3","mesh":11},{"matrix":[1,0,0,0,0,1,0,0,0,0,1,0,0,0.4065600037574768,0,1],"name":"body","extras":{"name":"body"},"children":[12,13,14]},{"name":"legLeft_1","mesh":12},{"name":"legLeft_2","mesh":13},{"matrix":[1,0,0,0,0,1,0,0,0,0,1,0,-0.1552319973707199,0.4065600037574768,0,1],"name":"legLeft","extras":{"name":"legLeft"},"children":[16,17]},{"name":"legRight_1","mesh":14},{"name":"legRight_2","mesh":15},{"matrix":[1,0,0,0,0,1,0,0,0,0,1,0,0.1552319973707199,0.4065600037574768,0,1],"name":"legRight","extras":{"name":"legRight"},"children":[19,20]},{"matrix":[1,0,0,0,0,1,0,0,0,0,1,0,-2.5564143657684326,0,-7.5919389724731445,1],"name":"pirate_captain_8angles","extras":{"name":"pirate_captain_8angles"},"children":[3,7,11,15,18,21]},{"name":"Scene","children":[22]}],"bufferViews":[{"buffer":0,"byteOffset":0,"byteLength":960,"target":34962,"byteStride":12},{"buffer":0,"byteOffset":960,"byteLength":960,"target":34962,"byteStride":12},{"buffer":0,"byteOffset":1920,"byteLength":640,"target":34962,"byteStride":8},{"buffer":0,"byteOffset":2560,"byteLength":360,"target":34963},{"buffer":0,"byteOffset":2920,"byteLength":528,"target":34962,"byteStride":12},{"buffer":0,"byteOffset":3448,"byteLength":528,"target":34962,"byteStride":12},{"buffer":0,"byteOffset":3976,"byteLength":352,"target":34962,"byteStride":8},{"buffer":0,"byteOffset":4328,"byteLength":192,"target":34963},{"buffer":0,"byteOffset":4520,"byteLength":312,"target":34962,"byteStride":12},{"buffer":0,"byteOffset":4832,"byteLength":312,"target":34962,"byteStride":12},{"buffer":0,"byteOffset":5144,"byteLength":208,"target":34962,"byteStride":8},{"buffer":0,"byteOffset":5352,"byteLength":120,"target":34963},{"buffer":0,"byteOffset":5472,"byteLength":960,"target":34962,"byteStride":12},{"buffer":0,"byteOffset":6432,"byteLength":960,"target":34962,"byteStride":12},{"buffer":0,"byteOffset":7392,"byteLength":640,"target":34962,"byteStride":8},{"buffer":0,"byteOffset":8032,"byteLength":360,"target":34963},{"buffer":0,"byteOffset":8392,"byteLength":528,"target":34962,"byteStride":12},{"buffer":0,"byteOffset":8920,"byteLength":528,"target":34962,"byteStride":12},{"buffer":0,"byteOffset":9448,"byteLength":352,"target":34962,"byteStride":8},{"buffer":0,"byteOffset":9800,"byteLength":192,"target":34963},{"buffer":0,"byteOffset":9992,"byteLength":360,"target":34962,"byteStride":12},{"buffer":0,"byteOffset":10352,"byteLength":360,"target":34962,"byteStride":12},{"buffer":0,"byteOffset":10712,"byteLength":240,"target":34962,"byteStride":8},{"buffer":0,"byteOffset":10952,"byteLength":120,"target":34963},{"buffer":0,"byteOffset":11072,"byteLength":2580,"target":34962,"byteStride":12},{"buffer":0,"byteOffset":13652,"byteLength":2580,"target":34962,"byteStride":12},{"buffer":0,"byteOffset":16232,"byteLength":1720,"target":34962,"byteStride":8},{"buffer":0,"byteOffset":17952,"byteLength":1068,"target":34963},{"buffer":0,"byteOffset":19020,"byteLength":1284,"target":34962,"byteStride":12},{"buffer":0,"byteOffset":20304,"byteLength":1284,"target":34962,"byteStride":12},{"buffer":0,"byteOffset":21588,"byteLength":856,"target":34962,"byteStride":8},{"buffer":0,"byteOffset":22444,"byteLength":660,"target":34963},{"buffer":0,"byteOffset":23104,"byteLength":1968,"target":34962,"byteStride":12},{"buffer":0,"byteOffset":25072,"byteLength":1968,"target":34962,"byteStride":12},{"buffer":0,"byteOffset":27040,"byteLength":1312,"target":34962,"byteStride":8},{"buffer":0,"byteOffset":28352,"byteLength":720,"target":34963},{"buffer":0,"byteOffset":29072,"byteLength":984,"target":34962,"byteStride":12},{"buffer":0,"byteOffset":30056,"byteLength":984,"target":34962,"byteStride":12},{"buffer":0,"byteOffset":31040,"byteLength":656,"target":34962,"byteStride":8},{"buffer":0,"byteOffset":31696,"byteLength":360,"target":34963},{"buffer":0,"byteOffset":32056,"byteLength":720,"target":34962,"byteStride":12},{"buffer":0,"byteOffset":32776,"byteLength":720,"target":34962,"byteStride":12},{"buffer":0,"byteOffset":33496,"byteLength":480,"target":34962,"byteStride":8},{"buffer":0,"byteOffset":33976,"byteLength":264,"target":34963},{"buffer":0,"byteOffset":34240,"byteLength":144,"target":34962,"byteStride":12},{"buffer":0,"byteOffset":34384,"byteLength":144,"target":34962,"byteStride":12},{"buffer":0,"byteOffset":34528,"byteLength":96,"target":34962,"byteStride":8},{"buffer":0,"byteOffset":34624,"byteLength":48,"target":34963},{"buffer":0,"byteOffset":34672,"byteLength":312,"target":34962,"byteStride":12},{"buffer":0,"byteOffset":34984,"byteLength":312,"target":34962,"byteStride":12},{"buffer":0,"byteOffset":35296,"byteLength":208,"target":34962,"byteStride":8},{"buffer":0,"byteOffset":35504,"byteLength":120,"target":34963},{"buffer":0,"byteOffset":35624,"byteLength":480,"target":34962,"byteStride":12},{"buffer":0,"byteOffset":36104,"byteLength":480,"target":34962,"byteStride":12},{"buffer":0,"byteOffset":36584,"byteLength":320,"target":34962,"byteStride":8},{"buffer":0,"byteOffset":36904,"byteLength":216,"target":34963},{"buffer":0,"byteOffset":37120,"byteLength":480,"target":34962,"byteStride":12},{"buffer":0,"byteOffset":37600,"byteLength":480,"target":34962,"byteStride":12},{"buffer":0,"byteOffset":38080,"byteLength":320,"target":34962,"byteStride":8},{"buffer":0,"byteOffset":38400,"byteLength":216,"target":34963},{"buffer":0,"byteOffset":38616,"byteLength":312,"target":34962,"byteStride":12},{"buffer":0,"byteOffset":38928,"byteLength":312,"target":34962,"byteStride":12},{"buffer":0,"byteOffset":39240,"byteLength":208,"target":34962,"byteStride":8},{"buffer":0,"byteOffset":39448,"byteLength":120,"target":34963}],"buffers":[{"byteLength":39568,"uri":"data:application/octet-stream;base64,"}],"accessors":[{"bufferView":0,"componentType":5126,"count":80,"max":[0.024984106421470642,0.10499998927116394,0.07199938595294952],"min":[-0.14394240081310272,-0.25708645582199097,-0.09250494837760925],"type":"VEC3"},{"bufferView":1,"componentType":5126,"count":80,"max":[1,1,1],"min":[-1,-1,-1],"type":"VEC3"},{"bufferView":2,"componentType":5126,"count":80,"max":[11.324052810668945,21.243030548095703],"min":[-11.334047317504883,-7.267716407775879],"type":"VEC2"},{"bufferView":3,"componentType":5125,"count":90,"max":[79],"min":[0],"type":"SCALAR"},{"bufferView":4,"componentType":5126,"count":44,"max":[0.0000330805778503418,-0.13404607772827148,0.06955260038375854],"min":[-0.14394240081310272,-0.3912169337272644,-0.128445103764534],"type":"VEC3"},{"bufferView":5,"componentType":5126,"count":44,"max":[1,0.2606658935546875,0.9654290676116943],"min":[-1,-0.9654290676116943,-0.9654290676116943],"type":"VEC3"},{"bufferView":6,"componentType":5126,"count":44,"max":[11.329954147338867,31.804485321044922],"min":[-11.334047317504883,-1.555619239807129],"type":"VEC2"},{"bufferView":7,"componentType":5125,"count":48,"max":[43],"min":[0],"type":"SCALAR"},{"bufferView":8,"componentType":5126,"count":26,"max":[-0.000036135315895080566,0.07500000298023224,0.07193506509065628],"min":[-0.14394240081310272,-0.17130111157894135,-0.07197120040655136],"type":"VEC3"},{"bufferView":9,"componentType":5126,"count":26,"max":[1,0.23805208504199982,0.9999685287475586],"min":[-1,-0.007936254143714905,-0.9999685287475586],"type":"VEC3"},{"bufferView":10,"componentType":5126,"count":26,"max":[11.334047317504883,14.483535766601562],"min":[-11.334047317504883,-4.971581935882568],"type":"VEC2"},{"bufferView":11,"componentType":5125,"count":30,"max":[25],"min":[0],"type":"SCALAR"},{"bufferView":12,"componentType":5126,"count":80,"max":[0.1439265012741089,0.10499998927116394,0.07199938595294952],"min":[-0.02500000037252903,-0.25708645582199097,-0.09250494837760925],"type":"VEC3"},{"bufferView":13,"componentType":5126,"count":80,"max":[1,1,1],"min":[-1,-1,-1],"type":"VEC3"},{"bufferView":14,"componentType":5126,"count":80,"max":[11.324052810668945,21.243030548095703],"min":[-11.334047317504883,-7.267716407775879],"type":"VEC2"},{"bufferView":15,"componentType":5125,"count":90,"max":[79],"min":[0],"type":"SCALAR"},{"bufferView":16,"componentType":5126,"count":44,"max":[0.14397548139095306,-0.13404607772827148,0.06955260038375854],"min":[7.21911442571558e-15,-0.3912169337272644,-0.128445103764534],"type":"VEC3"},{"bufferView":17,"componentType":5126,"count":44,"max":[1,0.2606658935546875,0.9654290676116943],"min":[-1,-0.9654290676116943,-0.9654290676116943],"type":"VEC3"},{"bufferView":18,"componentType":5126,"count":44,"max":[11.329954147338867,31.804485321044922],"min":[-11.334047317504883,-1.555619239807129],"type":"VEC2"},{"bufferView":19,"componentType":5125,"count":48,"max":[43],"min":[0],"type":"SCALAR"},{"bufferView":20,"componentType":5126,"count":30,"max":[0.14390626549720764,0.07500000298023224,0.07193506509065628],"min":[7.21911442571558e-15,-0.17130111157894135,-0.07197120040655136],"type":"VEC3"},{"bufferView":21,"componentType":5126,"count":30,"max":[1,0.23805208504199982,0.9999685287475586],"min":[-1,-0.007936254143714905,-0.9999685287475586],"type":"VEC3"},{"bufferView":22,"componentType":5126,"count":30,"max":[11.334047317504883,14.483535766601562],"min":[-11.334047317504883,-4.971581935882568],"type":"VEC2"},{"bufferView":23,"componentType":5125,"count":30,"max":[29],"min":[0],"type":"SCALAR"},{"bufferView":24,"componentType":5126,"count":215,"max":[0.1592399924993515,0.19556881487369537,0.114227294921875],"min":[-0.1592399924993515,0,-0.13424000144004822],"type":"VEC3"},{"bufferView":25,"componentType":5126,"count":215,"max":[1,1,0.9882676005363464],"min":[-1,-1,-1],"type":"VEC3"},{"bufferView":26,"componentType":5126,"count":215,"max":[12.542586326599121,11.570077896118164],"min":[-12.538582801818848,-14.399595260620117],"type":"VEC2"},{"bufferView":27,"componentType":5125,"count":267,"max":[214],"min":[0],"type":"SCALAR"},{"bufferView":28,"componentType":5126,"count":107,"max":[0.11423999816179276,0.2149743288755417,0.11423999816179276],"min":[-0.11423999816179276,0,-0.11423999816179276],"type":"VEC3"},{"bufferView":29,"componentType":5126,"count":107,"max":[1,1,1],"min":[-1,0,-1],"type":"VEC3"},{"bufferView":30,"componentType":5126,"count":107,"max":[8.99722671508789,9.995275497436523],"min":[-8.995275497436523,-15.929134368896484],"type":"VEC2"},{"bufferView":31,"componentType":5125,"count":165,"max":[106],"min":[0],"type":"SCALAR"},{"bufferView":32,"componentType":5126,"count":164,"max":[0.00004914402961730957,0.10004744678735733,0.40715134143829346],"min":[-0.38601863384246826,3.609557054039112e-16,3.2486013221654213e-15],"type":"VEC3"},{"bufferView":33,"componentType":5126,"count":164,"max":[1,1,0.9809349179267883],"min":[-1,-1,-0.7292711138725281],"type":"VEC3"},{"bufferView":34,"componentType":5126,"count":164,"max":[33.947845458984375,10.628551483154297],"min":[-36.07929992675781,-31.059162139892578],"type":"VEC2"},{"bufferView":35,"componentType":5125,"count":180,"max":[163],"min":[0],"type":"SCALAR"},{"bufferView":36,"componentType":5126,"count":82,"max":[0.16797374188899994,0.37296000123023987,0.1142367348074913],"min":[-0.1679999977350235,0,-0.11423999816179276],"type":"VEC3"},{"bufferView":37,"componentType":5126,"count":82,"max":[1,1,1],"min":[-1,-1,-1],"type":"VEC3"},{"bufferView":38,"componentType":5126,"count":82,"max":[13.24644947052002,9.995275497436523],"min":[-13.228346824645996,-28.36693000793457],"type":"VEC2"},{"bufferView":39,"componentType":5125,"count":90,"max":[81],"min":[0],"type":"SCALAR"},{"bufferView":40,"componentType":5126,"count":60,"max":[0.1679999977350235,0.3729081153869629,0.11424656957387924],"min":[-0.1679999977350235,0.06185779720544815,-0.11423999816179276],"type":"VEC3"},{"bufferView":41,"componentType":5126,"count":60,"max":[1,1,1],"min":[-1,-0.06707552075386047,-1],"type":"VEC3"},{"bufferView":42,"componentType":5126,"count":60,"max":[13.24644947052002,9.995275497436523],"min":[-13.228346824645996,-28.36693000793457],"type":"VEC2"},{"bufferView":43,"componentType":5125,"count":66,"max":[59],"min":[0],"type":"SCALAR"},{"bufferView":44,"componentType":5126,"count":12,"max":[0.1679999977350235,0.18648000061511993,0.11424656957387924],"min":[-0.1679999977350235,0.18648000061511993,-0.11423999816179276],"type":"VEC3"},{"bufferView":45,"componentType":5126,"count":12,"max":[0,-1,0],"min":[0,-1,0],"type":"VEC3"},{"bufferView":46,"componentType":5126,"count":12,"max":[13.22834587097168,-22.653526306152344],"min":[-8.995275497436523,-28.36693000793457],"type":"VEC2"},{"bufferView":47,"componentType":5125,"count":12,"max":[11],"min":[0],"type":"SCALAR"},{"bufferView":48,"componentType":5126,"count":26,"max":[0.14389483630657196,0,0.07200570404529572],"min":[0,-0.2032800018787384,-0.08877119421958923],"type":"VEC3"},{"bufferView":49,"componentType":5126,"count":26,"max":[1,1,0.996367335319519],"min":[-1,-0.08515956252813339,-0.996367335319519],"type":"VEC3"},{"bufferView":50,"componentType":5126,"count":26,"max":[11.334047317504883,17.535743713378906],"min":[-11.334047317504883,-4.667023658752441],"type":"VEC2"},{"bufferView":51,"componentType":5125,"count":30,"max":[25],"min":[0],"type":"SCALAR"},{"bufferView":52,"componentType":5126,"count":40,"max":[0.14389483630657196,-0.2032800018787384,0.07197875529527664],"min":[-1.4438228216156449e-15,-0.4065600037574768,-0.10697119683027267],"type":"VEC3"},{"bufferView":53,"componentType":5126,"count":40,"max":[1,0.6902108788490295,0.996367335319519],"min":[-1,-1,-1],"type":"VEC3"},{"bufferView":54,"componentType":5126,"count":40,"max":[11.347225189208984,33.37058639526367],"min":[-11.334047317504883,-4.667023658752441],"type":"VEC2"},{"bufferView":55,"componentType":5125,"count":54,"max":[39],"min":[0],"type":"SCALAR"},{"bufferView":56,"componentType":5126,"count":40,"max":[-0.00004756450653076172,-0.2032800018787384,0.07197875529527664],"min":[-0.14394240081310272,-0.4065600037574768,-0.10697119683027267],"type":"VEC3"},{"bufferView":57,"componentType":5126,"count":40,"max":[1,0.6902108788490295,0.996367335319519],"min":[-1,-1,-1],"type":"VEC3"},{"bufferView":58,"componentType":5126,"count":40,"max":[11.347225189208984,33.37058639526367],"min":[-11.334047317504883,-4.667023658752441],"type":"VEC2"},{"bufferView":59,"componentType":5125,"count":54,"max":[39],"min":[0],"type":"SCALAR"},{"bufferView":60,"componentType":5126,"count":26,"max":[-0.00004756450653076172,0,0.07200570404529572],"min":[-0.14394240081310272,-0.2032800018787384,-0.08877119421958923],"type":"VEC3"},{"bufferView":61,"componentType":5126,"count":26,"max":[1,1,0.996367335319519],"min":[-1,-0.08515956252813339,-0.996367335319519],"type":"VEC3"},{"bufferView":62,"componentType":5126,"count":26,"max":[11.334047317504883,17.535743713378906],"min":[-11.334047317504883,-4.667023658752441],"type":"VEC2"},{"bufferView":63,"componentType":5125,"count":30,"max":[25],"min":[0],"type":"SCALAR"}],"materials":[{"pbrMetallicRoughness":{"baseColorFactor":[0.4549019607843137,0.13333333333333333,0.13333333333333333,1],"metallicFactor":0.25,"roughnessFactor":0.8500000238418579},"alphaMode":"BLEND","name":"textile.002"},{"pbrMetallicRoughness":{"baseColorFactor":[0.7764705882352941,0.6784313725490196,0.592156862745098,1],"metallicFactor":0.25,"roughnessFactor":0.8500000238418579},"alphaMode":"BLEND","name":"wood.015"},{"pbrMetallicRoughness":{"baseColorFactor":[0.29411764705882354,0.2,0.17647058823529413,1],"metallicFactor":0.25,"roughnessFactor":0.8500000238418579},"alphaMode":"BLEND","name":"textileRed"},{"pbrMetallicRoughness":{"baseColorFactor":[0.5529411764705883,0.45098039215686275,0.28627450980392155,1],"metallicFactor":0.25,"roughnessFactor":0.8500000238418579},"alphaMode":"BLEND","name":"sand.003"},{"pbrMetallicRoughness":{"baseColorFactor":[0.7058823529411765,0.18823529411764706,0.18823529411764706,1],"metallicFactor":0.25,"roughnessFactor":0.8500000238418579},"alphaMode":"BLEND","name":"iron.005"},{"pbrMetallicRoughness":{"baseColorFactor":[0.3803921568627451,0.19215686274509805,0.19215686274509805,1],"metallicFactor":0,"roughnessFactor":0.5},"alphaMode":"BLEND","name":"_defaultMat"}],"meshes":[{"primitives":[{"mode":4,"attributes":{"POSITION":0,"NORMAL":1,"TEXCOORD_0":2},"indices":3,"material":0}]},{"primitives":[{"mode":4,"attributes":{"POSITION":4,"NORMAL":5,"TEXCOORD_0":6},"indices":7,"material":1}]},{"primitives":[{"mode":4,"attributes":{"POSITION":8,"NORMAL":9,"TEXCOORD_0":10},"indices":11,"material":2}]},{"primitives":[{"mode":4,"attributes":{"POSITION":12,"NORMAL":13,"TEXCOORD_0":14},"indices":15,"material":0}]},{"primitives":[{"mode":4,"attributes":{"POSITION":16,"NORMAL":17,"TEXCOORD_0":18},"indices":19,"material":1}]},{"primitives":[{"mode":4,"attributes":{"POSITION":20,"NORMAL":21,"TEXCOORD_0":22},"indices":23,"material":2}]},{"primitives":[{"mode":4,"attributes":{"POSITION":24,"NORMAL":25,"TEXCOORD_0":26},"indices":27,"material":3}]},{"primitives":[{"mode":4,"attributes":{"POSITION":28,"NORMAL":29,"TEXCOORD_0":30},"indices":31,"material":1}]},{"primitives":[{"mode":4,"attributes":{"POSITION":32,"NORMAL":33,"TEXCOORD_0":34},"indices":35,"material":4}]},{"primitives":[{"mode":4,"attributes":{"POSITION":36,"NORMAL":37,"TEXCOORD_0":38},"indices":39,"material":1}]},{"primitives":[{"mode":4,"attributes":{"POSITION":40,"NORMAL":41,"TEXCOORD_0":42},"indices":43,"material":2}]},{"primitives":[{"mode":4,"attributes":{"POSITION":44,"NORMAL":45,"TEXCOORD_0":46},"indices":47,"material":5}]},{"primitives":[{"mode":4,"attributes":{"POSITION":48,"NORMAL":49,"TEXCOORD_0":50},"indices":51,"material":0}]},{"primitives":[{"mode":4,"attributes":{"POSITION":52,"NORMAL":53,"TEXCOORD_0":54},"indices":55,"material":1}]},{"primitives":[{"mode":4,"attributes":{"POSITION":56,"NORMAL":57,"TEXCOORD_0":58},"indices":59,"material":1}]},{"primitives":[{"mode":4,"attributes":{"POSITION":60,"NORMAL":61,"TEXCOORD_0":62},"indices":63,"material":0}]}]}